<svg width="20" height="20" viewBox="0 0 20 20" fill="none" xmlns="http://www.w3.org/2000/svg">
<path d="M13.418 7.85885C13.5481 7.73 13.7239 7.65771 13.907 7.65771C14.0901 7.65771 14.2659 7.73 14.396 7.85885C14.4602 7.92212 14.5113 7.99754 14.5461 8.08072C14.5809 8.1639 14.5989 8.25317 14.5989 8.34335C14.5989 8.43352 14.5809 8.5228 14.5461 8.60598C14.5113 8.68915 14.4602 8.76458 14.396 8.82785L10.488 12.6578C10.3576 12.7865 10.1817 12.8587 9.9985 12.8587C9.81528 12.8587 9.63943 12.7865 9.509 12.6578L5.601 8.82785C5.53675 8.76458 5.48572 8.68915 5.45089 8.60598C5.41607 8.5228 5.39813 8.43352 5.39813 8.34335C5.39813 8.25317 5.41607 8.1639 5.45089 8.08072C5.48572 7.99754 5.53675 7.92212 5.601 7.85885C5.73113 7.73 5.90686 7.65771 6.09 7.65771C6.27313 7.65771 6.44886 7.73 6.579 7.85885L10 10.9998L13.418 7.85885Z" fill="#6D737F"/>
</svg>
