<svg width="24" height="24" viewBox="0 0 24 24" fill="none" xmlns="http://www.w3.org/2000/svg">
<path fill-rule="evenodd" clip-rule="evenodd" d="M12.476 1.75516C12.409 1.54916 12.217 1.41016 12 1.41016C11.783 1.41016 11.591 1.54916 11.524 1.75516L9.39202 8.32016H2.48902C2.27302 8.32016 2.08102 8.45916 2.01402 8.66516C1.94702 8.87116 2.02002 9.09716 2.19602 9.22416L7.77902 13.2812C7.78002 13.2812 5.64702 19.8452 5.64702 19.8452C5.58002 20.0522 5.65302 20.2772 5.82802 20.4052C6.00302 20.5322 6.24102 20.5322 6.41602 20.4052L12 16.3482L17.584 20.4052C17.759 20.5322 17.997 20.5322 18.172 20.4052C18.347 20.2772 18.42 20.0522 18.353 19.8452L16.22 13.2812C16.221 13.2812 21.804 9.22416 21.804 9.22416C21.98 9.09716 22.053 8.87116 21.986 8.66516C21.919 8.45916 21.727 8.32016 21.511 8.32016H14.608L12.476 1.75516Z" fill="#F1F3F9"/>
</svg>
